<svg fill="#b085f5" height="512pt" viewBox="-87 0 512 512" width="512pt" xmlns="http://www.w3.org/2000/svg"><path d="m24 497h.070312c0 2.019531.410157 4.070312 1.277344 6.035156 3.332032 7.539063 12.148438 10.949219 19.6875 7.617188l32.964844-14.640625 31.566406 14.019531c2.191406 1.253906 4.730469 1.96875 7.433594 1.96875 8.285156 0 15-6.714844 15-15v-30h-108zm0 0"/><path d="m321.867188 16.132812c-9.960938-9.957031-23.710938-16.132812-38.867188-16.132812h-25v437h25c15.15625 0 28.90625-6.175781 38.867188-16.132812 9.957031-9.957032 16.132812-23.710938 16.132812-38.867188v-327c0-15.15625-6.175781-28.90625-16.132812-38.867188zm0 0"/><path d="m0 15v407c0 8.285156 6.714844 15 15 15h213v-437h-213c-8.285156 0-15 6.714844-15 15zm0 0"/></svg>
