<?xml version="1.0" encoding="iso-8859-1"?>
<!-- Generator: Adobe Illustrator 16.0.0, SVG Export Plug-In . SVG Version: 6.00 Build 0)  -->
<!DOCTYPE svg PUBLIC "-//W3C//DTD SVG 1.1//EN" "http://www.w3.org/Graphics/SVG/1.1/DTD/svg11.dtd">
<svg fill="#b085f5" version="1.1" id="Capa_1" xmlns="http://www.w3.org/2000/svg" xmlns:xlink="http://www.w3.org/1999/xlink" x="0px" y="0px"
	 width="294.5px" height="294.5px" viewBox="0 0 294.5 294.5" style="enable-background:new 0 0 294.5 294.5;" xml:space="preserve"
	>
<g>
	<g>
		<path d="M253.428,18.721C253.428,8.379,245.043,0,234.708,0H77.775v48.837H59.87c-10.342,0-18.721,8.38-18.721,18.721v162.875
			c-0.011,0.333-0.082,0.634-0.082,0.966c0,11.802,7.636,20.366,18.154,20.366h0.24v21.399c-0.013,0.327-0.082,0.633-0.082,0.97
			c0,11.803,7.636,20.366,18.154,20.366h157.575v-3.512v-3.513H77.538c-7.694,0-11.135-6.697-11.135-13.342
			c0-0.3,0.045-0.601,0.061-0.896c0.303-6.333,3.731-12.439,11.074-12.439h157.581v-3.507v-3.522v-51.121h0.232
			c10.536,0,17.888-8.258,17.888-20.092c0-0.312-0.063-0.591-0.074-0.896h0.269V18.721H253.428z M216.799,230.491v14.249H59.46
			h-0.24c-7.694,0-11.135-6.697-11.135-13.342c0-0.301,0.044-0.602,0.061-0.907c0.303-6.328,3.731-12.43,11.069-12.43h0.24h157.344
			V230.491z M235.351,196.172h-0.243h-18.309H77.775v-14.513V168.95h139.024h18.319h0.232c7.53,0,11.042,6.244,11.349,12.709
			c0.016,0.295,0.058,0.596,0.058,0.896C246.757,189.337,243.229,196.172,235.351,196.172z"/>
	</g>
</g>
<g>
</g>
<g>
</g>
<g>
</g>
<g>
</g>
<g>
</g>
<g>
</g>
<g>
</g>
<g>
</g>
<g>
</g>
<g>
</g>
<g>
</g>
<g>
</g>
<g>
</g>
<g>
</g>
<g>
</g>
</svg>
